<?xml version="1.0" encoding="UTF-8"?>
<svg id="Capa_1" xmlns="http://www.w3.org/2000/svg" version="1.1" viewBox="0 0 1074 1000" fill="#f7f5f8">
  <!-- Generator: Adobe Illustrator 30.1.0, SVG Export Plug-In . SVG Version: 2.1.1 Build 136)  -->
  <g>
    <path d="M109.67,757.46v-171.43h31.74c3.2,0,5.87.72,8.02,2.15,2.15,1.43,3.66,3.58,4.55,6.45l2.81,9.26c2.86-2.98,5.84-5.7,8.93-8.18,3.08-2.48,6.42-4.63,10-6.45,3.58-1.82,7.44-3.25,11.57-4.3,4.13-1.05,8.68-1.57,13.64-1.57,10.36,0,18.93,2.67,25.71,8.02,6.78,5.35,11.93,12.48,15.46,21.41,2.86-5.29,6.36-9.81,10.5-13.56,4.13-3.75,8.6-6.78,13.39-9.09,4.79-2.31,9.86-4.02,15.21-5.12,5.34-1.1,10.66-1.65,15.95-1.65,9.81,0,18.52,1.46,26.12,4.38,7.6,2.92,13.97,7.17,19.09,12.73,5.12,5.57,9.01,12.4,11.65,20.5,2.65,8.1,3.97,17.28,3.97,27.53v108.94h-51.25v-108.94c0-17.74-7.6-26.62-22.81-26.62-6.94,0-12.7,2.29-17.28,6.86-4.57,4.57-6.86,11.16-6.86,19.76v108.94h-51.25v-108.94c0-9.81-1.93-16.7-5.79-20.66-3.86-3.97-9.53-5.95-17.03-5.95-4.63,0-9.01,1.05-13.14,3.14-4.13,2.09-8.02,4.91-11.65,8.43v123.99h-51.25Z"/>
    <path d="M442.28,586.03v108.78c0,8.49,1.93,15.04,5.79,19.67,3.86,4.63,9.53,6.94,17.03,6.94,5.62,0,10.88-1.16,15.79-3.47,4.9-2.31,9.67-5.56,14.3-9.75v-122.17h51.25v171.43h-31.74c-6.39,0-10.58-2.86-12.56-8.6l-3.14-9.92c-3.31,3.2-6.72,6.09-10.25,8.68-3.53,2.59-7.3,4.79-11.32,6.61-4.02,1.82-8.35,3.25-12.98,4.3-4.63,1.05-9.7,1.57-15.21,1.57-9.37,0-17.66-1.63-24.88-4.88-7.22-3.25-13.31-7.8-18.27-13.64-4.96-5.84-8.71-12.73-11.24-20.66-2.54-7.94-3.8-16.64-3.8-26.12v-108.78h51.25Z"/>
    <path d="M690.91,623.56c-1.32,2.09-2.73,3.58-4.22,4.46-1.49.88-3.39,1.32-5.7,1.32s-4.85-.52-7.27-1.57c-2.43-1.05-5.04-2.17-7.85-3.39-2.81-1.21-5.98-2.34-9.51-3.39-3.53-1.05-7.55-1.57-12.07-1.57-6.5,0-11.49,1.24-14.96,3.72-3.47,2.48-5.21,5.93-5.21,10.33,0,3.2,1.13,5.84,3.39,7.94,2.26,2.09,5.26,3.94,9.01,5.54,3.75,1.6,7.99,3.12,12.73,4.55,4.74,1.43,9.59,3.03,14.55,4.79,4.96,1.76,9.81,3.83,14.55,6.2,4.74,2.37,8.98,5.29,12.73,8.76,3.75,3.47,6.75,7.69,9.01,12.65,2.26,4.96,3.39,10.91,3.39,17.85,0,8.49-1.54,16.31-4.63,23.47-3.09,7.17-7.69,13.34-13.8,18.52-6.12,5.18-13.67,9.2-22.65,12.07-8.98,2.86-19.32,4.3-31,4.3-5.84,0-11.68-.55-17.52-1.65-5.84-1.1-11.49-2.59-16.94-4.46-5.46-1.87-10.5-4.1-15.13-6.7-4.63-2.59-8.6-5.37-11.9-8.35l11.9-18.85c1.43-2.2,3.14-3.94,5.12-5.21,1.98-1.27,4.57-1.9,7.77-1.9,2.98,0,5.65.66,8.02,1.98,2.37,1.32,4.93,2.76,7.69,4.3,2.75,1.54,5.98,2.98,9.67,4.3,3.69,1.32,8.35,1.98,13.97,1.98,3.97,0,7.33-.41,10.08-1.24,2.75-.83,4.96-1.96,6.61-3.39,1.65-1.43,2.86-3.03,3.64-4.79.77-1.76,1.16-3.58,1.16-5.46,0-3.41-1.16-6.23-3.47-8.43-2.31-2.2-5.35-4.1-9.09-5.7-3.75-1.6-8.02-3.08-12.81-4.46-4.79-1.38-9.67-2.95-14.63-4.71-4.96-1.76-9.84-3.88-14.63-6.36-4.79-2.48-9.07-5.62-12.81-9.42-3.75-3.8-6.78-8.46-9.09-13.97-2.31-5.51-3.47-12.18-3.47-20,0-7.27,1.41-14.19,4.22-20.75,2.81-6.56,7.03-12.32,12.65-17.28,5.62-4.96,12.67-8.9,21.16-11.82,8.49-2.92,18.4-4.38,29.76-4.38,6.17,0,12.15.55,17.94,1.65,5.79,1.1,11.21,2.65,16.28,4.63,5.07,1.98,9.7,4.33,13.89,7.03,4.19,2.7,7.88,5.65,11.08,8.84l-11.57,18.02Z"/>
    <path d="M790.43,539.08c0,4.08-.83,7.91-2.48,11.49-1.65,3.58-3.91,6.72-6.78,9.42-2.87,2.7-6.2,4.85-10,6.45-3.8,1.6-7.85,2.4-12.15,2.4s-8.1-.8-11.74-2.4c-3.64-1.6-6.86-3.75-9.67-6.45-2.81-2.7-5.02-5.84-6.61-9.42-1.6-3.58-2.4-7.41-2.4-11.49s.8-8.1,2.4-11.74c1.6-3.64,3.8-6.83,6.61-9.59,2.81-2.75,6.03-4.9,9.67-6.45,3.64-1.54,7.55-2.31,11.74-2.31s8.35.77,12.15,2.31c3.8,1.54,7.13,3.69,10,6.45,2.86,2.76,5.12,5.95,6.78,9.59s2.48,7.55,2.48,11.74ZM784.47,586.03v171.43h-51.25v-171.43h51.25Z"/>
    <path d="M949.45,626.7c-1.54,1.88-3.03,3.36-4.46,4.46-1.43,1.1-3.47,1.65-6.12,1.65s-4.82-.6-6.86-1.82c-2.04-1.21-4.33-2.56-6.86-4.05-2.54-1.49-5.51-2.84-8.93-4.05-3.42-1.21-7.66-1.82-12.73-1.82-6.28,0-11.71,1.16-16.28,3.47-4.57,2.31-8.35,5.62-11.32,9.92-2.98,4.3-5.18,9.56-6.61,15.79-1.43,6.23-2.15,13.25-2.15,21.08,0,16.42,3.17,29.04,9.51,37.86,6.34,8.82,15.07,13.23,26.2,13.23,5.95,0,10.66-.74,14.13-2.23,3.47-1.49,6.42-3.14,8.84-4.96,2.42-1.82,4.65-3.5,6.7-5.04,2.04-1.54,4.6-2.31,7.69-2.31,4.08,0,7.16,1.49,9.26,4.46l14.88,18.35c-5.29,6.06-10.86,10.99-16.7,14.8-5.84,3.8-11.82,6.78-17.94,8.93-6.12,2.15-12.26,3.64-18.43,4.46-6.17.83-12.18,1.24-18.02,1.24-10.47,0-20.47-1.98-30-5.95-9.53-3.97-17.91-9.73-25.13-17.28-7.22-7.55-12.95-16.83-17.19-27.86-4.24-11.02-6.36-23.58-6.36-37.69,0-12.34,1.84-23.89,5.54-34.63,3.69-10.75,9.15-20.06,16.37-27.94,7.22-7.88,16.14-14.08,26.78-18.6,10.63-4.52,22.95-6.78,36.95-6.78s25.24,2.15,35.38,6.45c10.14,4.3,19.29,10.58,27.44,18.85l-13.56,18.02Z"/>
  </g>
  <g>
    <path d="M109.67,102.41h71.15c8.18,0,14.88,1.86,20.08,5.58.05.04.1.07.16.11,7.08,5.13,11.04,13.54,10.76,22.29l-8.9,276.07c2.6-12.27,160.33-283.68,160.33-283.68,3.1-5.06,5.48-9.9,10.88-14.09,5.39-4.18,11.99-6.28,19.8-6.28h88.7l-237.13,406.41H109.67V102.41Z"/>
    <path d="M628.41,102.41h-11.11c-7.81,0-14.41,2.09-19.8,6.28-5.4,4.18-7.97,9-10.88,14.09l-225.26,386.05h95.1c7.81,0,14.41-2.09,19.8-6.28,5.4-4.18,7.77-9.11,10.88-14.09l225.51-386.05h-84.23Z"/>
    <path d="M964.33,508.83h-71.15c-8.18,0-14.88-1.86-20.08-5.58-2.96-2.12-5.44-4.62-7.44-7.52-2.51-3.64-3.7-8.03-3.55-12.44l8.98-278.5c-2.6,12.27-160.33,283.68-160.33,283.68-3.29,5.1-5.48,9.9-10.88,14.09-5.39,4.18-11.99,6.28-19.8,6.28h-88.7s237.13-406.41,237.13-406.41h135.83v406.41Z"/>
  </g>
  <path d="M891.13,875.28c0,5.87,3.53,10.81,10.6,14.83,7.07,4.02,15.73,6.03,25.99,6.03s18.53-1.11,24.97-3.33c7.75-2.68,11.63-6.61,11.63-11.8s-3.31-9.32-9.92-11.71c-3.76-1.37-11.09-2.79-21.98-4.27l-8.47-1.2c-10.32-1.48-17.16-2.79-20.52-3.93-5.02-1.71-7.52-4.19-7.52-7.44,0-3.08,2.96-5.58,8.89-7.52,5.93-1.94,13.57-2.91,22.92-2.91,8.61,0,16.06,1.6,22.36,4.79,6.3,3.19,9.45,6.98,9.45,11.37,0,1.6.8,2.39,2.39,2.39s2.39-.8,2.39-2.39c0-5.87-3.53-10.81-10.6-14.83-7.07-4.02-15.73-6.03-25.99-6.03s-18.53,1.11-24.97,3.33c-7.75,2.68-11.63,6.61-11.63,11.8s3.45,9.34,10.35,11.8c3.31,1.14,10.6,2.56,21.89,4.27l4.02.6,4.36.6c10.43,1.42,17.36,2.74,20.78,3.93,4.67,1.6,7.01,4.05,7.01,7.35,0,3.08-2.96,5.58-8.89,7.52-5.93,1.94-13.57,2.91-22.92,2.91-8.61,0-16.06-1.6-22.36-4.79-6.3-3.19-9.45-6.98-9.45-11.37,0-1.6-.8-2.39-2.39-2.39s-2.39.8-2.39,2.39h0ZM805.62,838.7h-68.41c-1.6,0-2.39.8-2.39,2.39s.8,2.39,2.39,2.39h31.81v48.89c0,1.6.8,2.39,2.39,2.39s2.39-.8,2.39-2.39v-48.89h31.81c1.6,0,2.39-.8,2.39-2.39s-.8-2.39-2.39-2.39h0ZM649.83,839.21c-1.6,0-2.39.8-2.39,2.39v46.5l-68.41-51.28v56.07c0,1.54.8,2.31,2.39,2.31s2.39-.77,2.39-2.31v-46.58l68.41,51.28v-55.98c0-1.6-.8-2.39-2.39-2.39h0ZM492.92,869.12c1.6,0,2.39-.8,2.39-2.39s-.8-2.39-2.39-2.39h-66.01v-20.86h66.01c1.6,0,2.39-.8,2.39-2.39s-.8-2.39-2.39-2.39h-70.8v56.07h70.8c1.6,0,2.39-.8,2.39-2.39s-.8-2.39-2.39-2.39h-66.01v-20.86h66.01ZM336.78,839.12c-.91,0-1.6.37-2.05,1.11l-32.15,48.29-32.24-48.29c-.46-.74-1.14-1.11-2.05-1.11-1.6,0-2.39.83-2.39,2.48,0,.46.14.88.43,1.28l36.26,54.27,36.17-54.27c.29-.4.43-.85.43-1.37,0-1.6-.8-2.39-2.39-2.39h0ZM180.47,869.12c1.6,0,2.39-.8,2.39-2.39s-.8-2.39-2.39-2.39h-66.01v-20.86h66.01c1.6,0,2.39-.8,2.39-2.39s-.8-2.39-2.39-2.39h-70.8v56.07h70.8c1.6,0,2.39-.8,2.39-2.39s-.8-2.39-2.39-2.39h-66.01v-20.86h66.01Z"/>
</svg>